
<svg xmlns="http://www.w3.org/2000/svg" version="1.1" >
	<symbol id="num" viewBox="0 0 482.6 482.6" preserveAspectRatio="meet">
		<path d="M98.339,320.8c47.6,56.9,104.9,101.7,170.3,133.4c24.9,11.8,58.2,25.8,95.3,28.2c2.3,0.1,4.5,0.2,6.8,0.2   c24.9,0,44.9-8.6,61.2-26.3c0.1-0.1,0.3-0.3,0.4-0.5c5.8-7,12.4-13.3,19.3-20c4.7-4.5,9.5-9.2,14.1-14   c21.3-22.2,21.3-50.4-0.2-71.9l-60.1-60.1c-10.2-10.6-22.4-16.2-35.2-16.2c-12.8,0-25.1,5.6-35.6,16.1l-35.8,35.8   c-3.3-1.9-6.7-3.6-9.9-5.2c-4-2-7.7-3.9-11-6c-32.6-20.7-62.2-47.7-90.5-82.4c-14.3-18.1-23.9-33.3-30.6-48.8   c9.4-8.5,18.2-17.4,26.7-26.1c3-3.1,6.1-6.2,9.2-9.3c10.8-10.8,16.6-23.3,16.6-36s-5.7-25.2-16.6-36l-29.8-29.8   c-3.5-3.5-6.8-6.9-10.2-10.4c-6.6-6.8-13.5-13.8-20.3-20.1c-10.3-10.1-22.4-15.4-35.2-15.4c-12.7,0-24.9,5.3-35.6,15.5l-37.4,37.4   c-13.6,13.6-21.3,30.1-22.9,49.2c-1.9,23.9,2.5,49.3,13.9,80C32.739,229.6,59.139,273.7,98.339,320.8z M25.739,104.2   c1.2-13.3,6.3-24.4,15.9-34l37.2-37.2c5.8-5.6,12.2-8.5,18.4-8.5c6.1,0,12.3,2.9,18,8.7c6.7,6.2,13,12.7,19.8,19.6   c3.4,3.5,6.9,7,10.4,10.6l29.8,29.8c6.2,6.2,9.4,12.5,9.4,18.7s-3.2,12.5-9.4,18.7c-3.1,3.1-6.2,6.3-9.3,9.4   c-9.3,9.4-18,18.3-27.6,26.8c-0.2,0.2-0.3,0.3-0.5,0.5c-8.3,8.3-7,16.2-5,22.2c0.1,0.3,0.2,0.5,0.3,0.8   c7.7,18.5,18.4,36.1,35.1,57.1c30,37,61.6,65.7,96.4,87.8c4.3,2.8,8.9,5,13.2,7.2c4,2,7.7,3.9,11,6c0.4,0.2,0.7,0.4,1.1,0.6   c3.3,1.7,6.5,2.5,9.7,2.5c8,0,13.2-5.1,14.9-6.8l37.4-37.4c5.8-5.8,12.1-8.9,18.3-8.9c7.6,0,13.8,4.7,17.7,8.9l60.3,60.2   c12,12,11.9,25-0.3,37.7c-4.2,4.5-8.6,8.8-13.3,13.3c-7,6.8-14.3,13.8-20.9,21.7c-11.5,12.4-25.2,18.2-42.9,18.2   c-1.7,0-3.5-0.1-5.2-0.2c-32.8-2.1-63.3-14.9-86.2-25.8c-62.2-30.1-116.8-72.8-162.1-127c-37.3-44.9-62.4-86.7-79-131.5   C28.039,146.4,24.139,124.3,25.739,104.2z"/>
	</symbol>
	<symbol id="searchIcon" x="0px" y="0px" viewBox="0 0 451 451" preserveAspectRatio="meet">
	<path d="M447.05,428l-109.6-109.6c29.4-33.8,47.2-77.9,47.2-126.1C384.65,86.2,298.35,0,192.35,0C86.25,0,0.05,86.3,0.05,192.3
		s86.3,192.3,192.3,192.3c48.2,0,92.3-17.8,126.1-47.2L428.05,447c2.6,2.6,6.1,4,9.5,4s6.9-1.3,9.5-4
		C452.25,441.8,452.25,433.2,447.05,428z M26.95,192.3c0-91.2,74.2-165.3,165.3-165.3c91.2,0,165.3,74.2,165.3,165.3
		s-74.1,165.4-165.3,165.4C101.15,357.7,26.95,283.5,26.95,192.3z"/>
	</symbol>
	<symbol id="burgerMenu" x="0px" y="0px" viewBox="0 0 50 50" preserveAspectRatio="meet">
		<rect y="3" width="50" height="2"/>
		<rect y="17" width="50" height="2"/>
		<rect y="31" width="50" height="2"/>
		<rect y="45" width="50" height="2"/>
	</symbol>
	<symbol id="burgerMenu2" x="0px" y="0px" viewBox="0 0 60 32" preserveAspectRatio="meet">
		<rect y="3" width="60" height="5"/>
		<rect y="17" width="40" height="5"/>
		<rect y="31" width="60" height="5"/>
	</symbol>
	<symbol id="vk_logo" x="0px" y="0px" viewBox="0 0 184.313 184.313" style="enable-background:new 0 0 184.313 184.313;" xml:space="preserve">
		<path d="M180.323,147.777l-53.048-45.373l55.314-66.784c2.642-3.191,2.197-7.918-0.992-10.56c-3.19-2.643-7.918-2.199-10.561,0.992
			l-60.022,72.469c-0.304,0.366-0.562,0.754-0.784,1.156V30.836c0-4.142-3.357-7.5-7.5-7.5h-9.521c-4.143,0-7.5,3.358-7.5,7.5
			s3.357,7.5,7.5,7.5h2.021v93.253L13.424,26.236c-2.541-3.272-7.253-3.864-10.524-1.324c-3.272,2.54-3.864,7.252-1.324,10.523
			l95.229,122.641c1.448,1.866,3.652,2.901,5.925,2.901c0.812,0,1.633-0.132,2.431-0.405c3.031-1.039,5.068-3.89,5.068-7.095v-46.55
			c0.423,0.767,0.981,1.476,1.686,2.079l58.658,50.171c1.413,1.209,3.146,1.8,4.871,1.8c2.116,0,4.22-0.891,5.703-2.625
			C183.84,155.204,183.471,150.469,180.323,147.777z"/>
	</symbol>
	<symbol id="fb_logo" x="0px" y="0px" viewBox="0 0 159.822 159.822" style="enable-background:new 0 0 159.822 159.822;" xml:space="preserve">
		 <path d="M76.715,36.172c4.142,0,7.5-3.358,7.5-7.5C84.215,21.133,90.349,15,97.887,15h21.179c4.142,0,7.5-3.358,7.5-7.5
		s-3.358-7.5-7.5-7.5H97.887c-15.81,0-28.672,12.862-28.672,28.672C69.215,32.813,72.573,36.172,76.715,36.172z"/>
		<path d="M117.458,59.627H40.756c-4.142,0-7.5,3.358-7.5,7.5s3.358,7.5,7.5,7.5h28.46v77.695c0,4.142,3.358,7.5,7.5,7.5
		c4.142,0,7.5-3.358,7.5-7.5V74.627h33.243c4.142,0,7.5-3.358,7.5-7.5S121.6,59.627,117.458,59.627z"/>
	</symbol>
</svg>
